<?xml version="1.0" encoding="UTF-8"?>
<!-- Generator: Adobe Illustrator 15.0.2, SVG Export Plug-In . SVG Version: 6.00 Build 0)  -->
<!DOCTYPE svg PUBLIC "-//W3C//DTD SVG 1.1//EN" "http://www.w3.org/Graphics/SVG/1.1/DTD/svg11.dtd">
<svg xmlns="http://www.w3.org/2000/svg" xmlns:xlink="http://www.w3.org/1999/xlink" version="1.1" id="Layer_1" x="0px" y="0px" width="512.001px" height="517.23px" viewBox="-0.004 0 512.001 517.23" enable-background="new -0.004 0 512.001 517.23" xml:space="preserve">
<g>
	<path d="M327.146,0C225.218,0,142.286,82.919,142.286,184.842c0,41.898,14.042,80.562,37.616,111.597L8.467,467.874   c-11.294,11.295-11.294,29.592,0,40.886c5.641,5.647,13.051,8.471,20.449,8.471c7.385,0,14.802-2.823,20.443-8.471l172.283-172.276   c29.93,20.895,66.294,33.205,105.511,33.205c101.912,0,184.845-82.925,184.845-184.854C511.99,82.919,429.065,0,327.146,0z    M327.146,318.287c-73.585,0-133.464-59.866-133.464-133.452c0.013-73.576,59.879-133.434,133.464-133.434   c73.583,0,133.443,59.857,133.443,133.44C460.589,258.421,400.729,318.287,327.146,318.287z" fill="#FFFFFF"/>
	<path d="M365.108,92.827c-12.919-5.645-27.922,0.21-33.67,13.11c-5.76,12.892,0.057,28.055,12.907,33.908   c1.305,0.597,32.045,14.912,28.512,40.992c-1.901,14.064,7.963,27.013,22.037,28.914c1.173,0.16,2.315,0.238,3.476,0.238   c12.662,0,23.693-9.368,25.438-22.266C430.779,136.125,390.188,103.792,365.108,92.827z" fill="#FFFFFF"/>
	<path d="M358.896,221.94c-6.808,0-13.428,2.764-18.184,7.583c-4.819,4.753-7.518,11.372-7.518,18.117   c0,6.812,2.698,13.428,7.518,18.19c4.756,4.819,11.382,7.518,18.184,7.518c6.758,0,13.365-2.698,18.121-7.518   c4.819-4.756,7.58-11.438,7.58-18.19c0-6.745-2.761-13.364-7.58-18.117C372.267,224.71,365.648,221.94,358.896,221.94z" fill="#FFFFFF"/>
</g>
</svg>
